<?xml version="1.0" encoding="utf-8"?>
<!-- Generator: Adobe Illustrator 22.1.0, SVG Export Plug-In . SVG Version: 6.00 Build 0)  -->
<svg version="1.0" xmlns="http://www.w3.org/2000/svg" xmlns:xlink="http://www.w3.org/1999/xlink" x="0px" y="0px"
	 viewBox="0 0 1200 600" style="enable-background:new 0 0 1200 600;" xml:space="preserve">
<style type="text/css">
	.st0{display:none;}
	.st1{fill:none;stroke:#730D00;stroke-miterlimit:10;}
	.st2{display:inline;}
	.st3{fill:url(#SVGID_1_);}
	.st4{display:none;fill:none;stroke:#730D00;stroke-miterlimit:10;}
	.st5{fill:#FFFFFF;}
</style>
<g id="Layer_1" class="st0">
	<path class="st1" d="M467,112c0,0-10-9-11-12s47-35,47-35l-24,22l3,9l11.7-5.4c10.5-4.9,22.4-5.5,33.4-1.7l0,0
		c8,2.7,16.6,2.7,24.5-0.2c7.3-2.6,16.4-6.2,23.5-9.7c14-7,85-18,85-18l-60,32c0,0,40,28,40,72s83,299,117,302s-142,84-142,84
		s-272,64-198-194c39-122,32-142,27-161S437,137,467,112z"/>
	<path class="st2" d="M690,107c-8-3-20-3-20-3s3-9,21-15c-30-20-131.4,48.2-139.3,49.1c-2.4-4.9-0.8-24.3,18.7-41.3
		c-12.5,6.4-16.4,12.2-21.1,20.9c-6.3,11.6-3,34.3-1.9,33.7c24.6-17.7,72.5-13.5,86-18C663.2,125.2,654,118,690,107z"/>
	<path class="st2" d="M600,204c38-14.8,65.9-36.6,36-70c0,0,30.8,21.4,12,46.6C629.1,205.9,600,204,600,204z"/>
	<path class="st2" d="M525.5,216.9c3,0.7,5,4,4.7,14c0.1,8.7,1.7,11.7,4,11.8c10.9,1.3,55.9-24.2,60-24.8
		c19.1-2.7,54.1,40,78.7,36.1c-27.1,3.4-65.5-32.2-81.3-24.7c-5.2,2.4-42.3,24.2-60.9,26.7c-3.7-2.2-4-12.1-2.6-21
		C529,225.1,528.1,219.1,525.5,216.9z"/>
	<path class="st2" d="M528.5,211.3c1.9,0.3,5.9,3.9,6.1,10.1c0.4,5.4,1.5,7.3,3,7.3c6.9,0.5,50.3-21.7,57.3-22.7
		c36.3,2.4,78,46,84,38c-15.3,14.5-57.9-34.7-83-32c-5,0-49.3,21.5-60,25.1c-2.4-1.2-3-7.4-2.5-13
		C533.7,217.9,530.2,212.6,528.5,211.3z"/>
	<path class="st2" d="M661,118c21.5,31,36.5,74.5,31.3,119.4c1.6-51.8-17.2-98.9-42.3-111.4C655,124,657,121,661,118z"/>
	<path class="st2" d="M544.1,133.7c-2.5,9.9-3.1,19.2,0,27.4l-3.3,4.1C538.7,155.4,540.2,144.9,544.1,133.7z"/>
	<path class="st2" d="M545.6,163c-4,9.8-7.2,20.1-5.6,25.6c6.6,1.3,12,1.6,15.6,3.3c-17.9,2.3-16.3,12.1-13.4,20
		C529.2,201.5,521.8,188.7,545.6,163z"/>
	<path class="st2" d="M691.8,244.2c-14.5,75-50.7,108-45.3,176.5c4.2,52.6,70.7,95.4,76.7,91.9c-8.1,7.4-106.8-18.5-101-110.3
		C626.2,340.7,654.3,340.9,691.8,244.2z"/>
	<path class="st2" d="M560,351"/>
	<path class="st2" d="M654,273c0,0-62,109-48,156s34,67,45,75c-33-14-66-38-72-79C575,369,602,339,654,273z"/>
	<path class="st2" d="M533.8,261.8c-26.5,17.4-58.3,50.6-48.6,113C463.4,296.2,492.9,274.2,533.8,261.8z"/>
	<path class="st2" d="M577,254c-40,38-59,41-77,85c-16.6,40.2,8.9,89.4,26,114c-19-65-18-81-11-102S552,292,577,254z"/>
	<path class="st2" d="M620,254c-47.1,67.1-66.8,69.9-84,115c-14,43,2.3,95.1,37.6,113.1C526.7,426.2,583,326,620,254z"/>
</g>
<g id="Layer_3">
	<radialGradient id="SVGID_1_" cx="600.5293" cy="300" r="474.3416" gradientUnits="userSpaceOnUse">
		<stop  offset="0" style="stop-color:#184F8C"/>
		<stop  offset="1" style="stop-color:#0C2746"/>
	</radialGradient>
	<rect x="0.5" class="st3" width="1200" height="600"/>
</g>
<g id="Layer_1_copy">
	<path class="st4" d="M467,112c0,0-10-9-11-12s47-35,47-35l-24,22l3,9l11.7-5.4c10.5-4.9,22.4-5.5,33.4-1.7l0,0
		c8,2.7,16.6,2.7,24.5-0.2c7.3-2.6,16.4-6.2,23.5-9.7c14-7,85-18,85-18l-60,32c0,0,40,28,40,72s83,299,117,302s-142,84-142,84
		s-272,64-198-194c39-122,32-142,27-161S437,137,467,112z"/>
	<path class="st5" d="M653.4,185.5c-4.7-1.8-11.8-1.8-11.8-1.8s1.8-5.3,12.4-8.9c-17.8-11.8-77.8,28.5-82.5,29.1
		c-1.4-2.9-0.5-14.4,11.1-24.5c-7.4,3.8-9.7,7.2-12.5,12.4c-3.7,6.9-1.8,20.3-1.1,20c14.6-10.5,43-8,50.9-10.7
		C637.5,196.3,632,192,653.4,185.5z"/>
	<path class="st5" d="M600.1,243c22.5-8.8,39-21.7,21.3-41.5c0,0,18.3,12.7,7.1,27.6S600.1,243,600.1,243z"/>
	<path class="st5" d="M556,250.6c1.8,0.4,3,2.4,2.8,8.3c0.1,5.2,1,7,2.4,7c6.5,0.8,33.1-14.3,35.5-14.7
		c11.3-1.6,32.4,22.5,46.6,21.4c-14.2,3-38.8-19-48.2-14.6c-3.1,1.4-25,14.3-36.1,15.8c-2.2-1.3-2.4-7.1-1.5-12.4
		C558,255.5,557.5,251.9,556,250.6z"/>
	<path class="st5" d="M557.7,247.3c1.1,0.2,3.5,2.3,3.6,6c0.3,3.2,0.9,4.3,1.8,4.3c4.1,0.3,29.8-12.8,34-13.4
		c21.5,1.4,37.3,26.1,48.6,25.5c-14.2,1.2-33.1-23.5-48-21.9c-3,0-29.2,12.8-35.5,14.9c-1.4-0.7-1.8-4.4-1.5-7.7
		C560.8,251.2,558.7,248.1,557.7,247.3z"/>
	<path class="st5" d="M636.2,192c12.7,18.3,21.6,44.1,18.5,70.7c1-30.7-10.2-58.6-25-66C632.6,195.6,633.8,193.8,636.2,192z"/>
	<path class="st5" d="M566.9,201.4c-1.5,5.9-1.8,11.4,0,16.2L565,220C563.7,214.2,564.6,208,566.9,201.4z"/>
	<path class="st5" d="M567.8,218.7c-2.4,5.8-4.3,11.9-3.3,15.2c3.9,0.8,7.1,1,9.2,2c-10.6,1.4-9.6,7.2-7.9,11.9
		C558.2,241.5,553.8,233.9,567.8,218.7z"/>
	<path class="st5" d="M576.4,330"/>
</g>
<g id="Layer_4">
	<path class="st5" d="M654.4,266.8c-8.6,44.4-30.1,64-26.8,104.5c2.5,31.2,41.9,56.5,45.4,54.4c-4.8,4.4-63.3-11-59.8-65.3
		C615.6,323.9,632.2,324.1,654.4,266.8z"/>
</g>
<g id="Layer_5">
	<path class="st5" d="M632,283.8c0,0-36.7,64.6-28.4,92.4s20.1,39.7,26.7,44.4c-19.5-8.3-39.1-22.5-42.6-46.8
		C585.3,340.7,601.2,322.9,632,283.8z"/>
</g>
<g id="Layer_6">
	<path class="st5" d="M611.9,272.6c-27.9,39.8-39.6,41.4-49.7,68.1c-8.3,25.5,1.3,56.3,22.3,67C556.7,374.6,590,315.2,611.9,272.6z"
		/>
</g>
<g id="Layer_7">
	<path class="st5" d="M586.4,272.6c-23.7,22.5-34.9,24.3-45.6,50.3c-9.9,23.8,5.3,52.9,15.4,67.5c-11.3-38.5-10.7-48-6.5-60.4
		C553.9,317.6,571.6,295.1,586.4,272.6z"/>
</g>
<g id="Layer_8">
	<path class="st5" d="M560.9,277.2c-15.7,10.3-34.5,30-28.8,66.9C519.1,297.6,533.7,288,560.9,277.2z"/>
</g>
</svg>
