<?xml version="1.0" encoding="utf-8"?>
<!-- Generator: Adobe Illustrator 22.1.0, SVG Export Plug-In . SVG Version: 6.00 Build 0)  -->
<svg version="1.0" id="Layer_1" xmlns="http://www.w3.org/2000/svg" xmlns:xlink="http://www.w3.org/1999/xlink" x="0px" y="0px"
	 viewBox="0 0 890.9 235.3" style="enable-background:new 0 0 890.9 235.3;" xml:space="preserve">
<g>
	<path d="M112.5,219.8c-5,2.7-10.4,5-16,6.5c-5.6,1.5-11.6,2.4-17.5,2.4c-10.1,0-19.3-1.8-27.9-5.6s-16.3-8.9-22.8-15.4
		c-6.8-6.8-11.9-14.5-15.7-23.1S7,166.5,7,156.7c0-9.8,1.8-19,5.6-27.9c3.9-8.6,8.9-16.3,15.4-23.1c6.5-6.5,14.2-11.9,22.8-15.4
		c8.6-3.9,18.1-5.6,27.9-5.6s19,1.8,27.9,5.6c8.6,3.9,16.3,8.9,23.1,15.4c6.5,6.5,11.9,14.2,15.4,23.1c3.9,8.6,5.6,18.1,5.6,27.9
		v62.2c0,2.7-0.9,4.7-2.7,6.8c-1.8,1.8-4.1,3-6.8,3s-4.7-0.9-6.5-3c-1.8-1.8-2.7-4.1-2.7-6.8V205
		C126.8,210.9,120.2,215.7,112.5,219.8z M26,156.7c0,7.1,1.5,14.2,4.1,20.7s6.5,12.2,11.3,16.9c4.7,4.7,10.4,8.6,16.9,11.3
		s13.3,4.1,20.7,4.1c7.1,0,14.2-1.5,20.7-4.1s12.2-6.5,16.9-11.3c4.7-4.7,8.6-10.4,11.3-16.9c2.7-6.5,4.1-13.3,4.1-20.7
		c0-7.1-1.5-14.2-4.1-20.7s-6.5-12.2-11.3-16.9c-4.7-4.7-10.4-8.6-16.9-11.3c-6.5-2.7-13.3-4.1-20.7-4.1c-7.1,0-14.2,1.5-20.7,4.1
		c-6.5,2.7-12.2,6.5-16.9,11.3c-4.7,4.7-8.6,10.4-11.3,16.9C27.5,142.5,26,149.3,26,156.7z"/>
	<path d="M189.6,103.6v53.1c0,6.2,0.9,12.4,2.7,18.7c1.8,6.2,4.1,11.9,7.1,16.6c2.4,4.1,5.6,8.3,10.1,12.2
		c4.4,3.9,10.4,5.6,17.5,5.6c2.7,0,5,0.9,6.8,2.7c1.8,1.8,2.7,3.9,2.7,6.5c0,2.7-0.9,5-2.7,6.8c-1.8,1.8-4.1,2.7-6.8,2.7
		c-8.9,0-17.5-2.4-25.2-7.4c-7.1-4.1-12.7-10.1-17.5-17.8c-4.1-6.5-7.7-13.9-9.8-22.2c-2.4-8.3-3.6-16.3-3.6-24.3V15.9
		c0-2.7,0.9-4.7,3-6.5c1.8-1.8,4.1-2.7,6.8-2.7s4.7,0.9,6.5,2.7c1.8,1.8,2.7,3.9,2.7,6.5v68.8h37.3c2.7,0,5,0.9,6.8,2.7
		c1.8,1.8,2.7,4.1,2.7,6.8c0,2.7-0.9,4.7-2.7,6.5c-1.8,1.8-4.1,2.7-6.8,2.7h-37.6V103.6z"/>
	<path d="M268.7,228.4c-2.7,0-4.7-0.9-6.5-2.7c-1.8-1.8-2.7-3.9-2.7-6.5v-203c0-2.7,0.9-4.7,2.7-6.5s3.9-2.7,6.5-2.7
		c2.7,0,4.7,0.9,6.8,2.7c1.8,1.8,3,3.9,3,6.5v91.9c5.3-5.9,11.9-11,19.3-15.1c10.4-5.6,21.6-8.3,33.8-8.3c9.8,0,19,1.8,27.9,5.6
		c8.6,3.9,16.3,8.9,22.8,15.4s11.6,14.2,15.4,23.1c3.9,8.6,5.6,18.1,5.6,27.9v62.2c0,2.7-0.9,4.7-2.7,6.5c-1.8,1.8-3.9,2.7-6.5,2.7
		c-2.7,0-4.7-0.9-6.8-2.7c-1.8-1.8-3-3.9-3-6.5v-62.2c0-7.1-1.5-14.2-4.1-20.7c-2.7-6.5-6.5-12.2-11.3-16.9
		c-4.7-4.7-10.4-8.6-16.9-11.3c-6.5-2.7-13.3-4.1-20.5-4.1c-7.4,0-14.5,1.5-20.7,4.1c-6.5,2.7-11.9,6.5-16.9,11.3
		c-4.7,4.7-8.6,10.4-11.3,16.9c-2.7,6.5-4.1,13.3-4.1,20.7v62.2c0,2.7-0.9,4.7-3,6.5C273.8,227.5,271.4,228.4,268.7,228.4z"/>
	<path d="M557.7,125.6c0,0.3,0,0.9,0.3,0.9c0,0.3,0.3,0.6,0.3,0.9c0,0.9,0,1.5-0.3,1.5c0,0.9,0,1.5-0.3,1.5v0.3
		c-0.3,0.3-0.6,0.9-0.6,1.2l-0.3,0.3c-0.3,0.3-0.3,0.3-0.3,0.6c0,0.3-0.3,0.3-0.6,0.6c-0.3,0.3-0.3,0.6-0.6,0.9
		c-0.3,0-0.3,0.3-0.6,0.6l-1.2,0.6c0,0.3,0,0.3-0.3,0.3s-0.3,0-0.6,0.3l-107.6,40.9c2.1,5.3,4.7,9.8,8,13.3
		c3.3,3.6,6.8,6.5,10.4,8.9c3.6,2.4,6.8,4.1,9.8,5.3c3,1.2,5.3,2.1,6.8,2.4c4.4,1.5,9.5,2.4,15.1,2.4c2.7,0,5.9-0.3,9.8-0.9
		c3.9-0.6,7.7-1.8,11.9-3.6c4.1-1.8,8-4.4,12.2-8s7.7-8,11.3-13.9c1.8-3.3,4.4-4.7,8.3-4.7c1.8,0,3.3,0.3,4.4,1.2
		c2.4,1.2,3.9,3.3,4.4,5.6c0.6,2.4,0.3,4.7-0.9,7.1c-6.5,11.6-15.4,20.5-26.1,27c-10.7,6.2-22.2,9.2-35,9.2c-7.1,0-13.9-0.9-20.5-3
		c-16.3-4.4-29.3-13-38.5-25.8c-9.5-13-14.2-27.9-13.6-44.8c0.3-16.9,5.6-31.7,15.7-44.2c10.1-12.2,23.1-20.2,39.7-24.3
		c3-0.6,5.9-1.2,8.9-1.5s5.9-0.6,8.9-0.6c13.3,0,25.5,3.6,36.5,10.1c11,6.8,19.6,16.3,26.1,28.5v0.6c0.3,0.3,0.3,0.3,0.3,0.6
		C557.7,124.7,557.7,125,557.7,125.6z M534.3,123.2c-3.3-4.1-6.5-7.7-10.4-10.4s-7.4-4.4-11-5.9c-3.6-1.5-7.1-2.4-10.4-2.7
		c-3.3-0.3-6.2-0.6-8.9-0.6c-2.1,0-4.1,0-6.5,0.3c-2.1,0.3-4.1,0.6-5.9,0.9c-4.7,1.2-9.5,3-14.2,5.3c-4.7,2.4-9.2,5.9-13,10.1
		c-3.9,4.1-7.1,9.2-9.5,14.8c-2.4,5.6-3.9,12.4-4.1,20.2v3.6L534.3,123.2z"/>
	<path d="M587.4,228.4c-2.7,0-5-0.9-6.8-3c-1.8-1.8-2.7-4.1-2.7-6.8v-62.2c0-9.8,1.8-19,5.6-27.9c3.9-8.6,8.9-16.3,15.4-23.1
		c6.5-6.5,14.2-11.9,22.8-15.4c8.6-3.9,18.1-5.6,27.9-5.6c9.8,0,19,1.8,27.9,5.6c8.6,3.9,16.3,8.9,23.1,15.4
		c6.5,6.5,11.9,14.2,15.4,23.1c3.9,8.6,5.6,18.1,5.6,27.9v62.2c0,2.7-0.9,4.7-2.7,6.8c-1.8,1.8-4.1,3-6.8,3c-2.7,0-4.7-0.9-6.5-3
		c-1.8-1.8-2.7-4.1-2.7-6.8v-62.2c0-7.1-1.5-14.2-4.1-20.7c-2.7-6.5-6.5-12.2-11.3-16.9c-4.7-4.7-10.4-8.6-16.9-11.3
		c-6.5-2.7-13.3-4.1-20.7-4.1s-14.5,1.5-20.7,4.1c-6.5,2.7-11.9,6.5-16.9,11.3c-5,4.7-8.6,10.4-11.3,16.9
		c-2.7,6.5-4.1,13.3-4.1,20.7v62.2c0,2.7-0.9,4.7-2.7,6.8C592.1,227.5,590,228.4,587.4,228.4z"/>
	<path d="M844.7,219.8c-5,2.7-10.4,5-16,6.5c-5.6,1.5-11.6,2.4-17.5,2.4c-10.1,0-19.3-1.8-27.9-5.6c-8.6-3.9-16.3-8.9-22.8-15.4
		c-6.5-6.5-11.9-14.2-15.4-22.8c-3.9-8.6-5.6-18.1-5.6-27.9c0-9.8,1.8-19,5.6-27.9c3.9-8.6,8.9-16.3,15.4-23.1
		c6.5-6.5,14.2-11.9,22.8-15.4c8.6-3.9,18.1-5.6,27.9-5.6c9.8,0,19,1.8,27.9,5.6c8.6,3.9,16.3,8.9,23.1,15.4
		c6.5,6.5,11.9,14.2,15.4,23.1c3.9,8.6,5.6,18.1,5.6,27.9v62.2c0,2.7-0.9,4.7-2.7,6.8c-1.8,1.8-4.1,3-6.8,3s-4.7-0.9-6.5-3
		c-1.8-1.8-2.7-4.1-2.7-6.8v-13.9C858.9,210.9,852.4,215.7,844.7,219.8z M758.1,156.7c0,7.1,1.5,14.2,4.1,20.7s6.5,12.2,11.3,16.9
		c4.7,4.7,10.4,8.6,16.9,11.3c6.5,2.7,13.3,4.1,20.7,4.1c7.1,0,14.2-1.5,20.7-4.1c6.5-2.7,12.2-6.5,16.9-11.3
		c4.7-4.7,8.6-10.4,11.3-16.9s4.1-13.3,4.1-20.7c0-7.1-1.5-14.2-4.1-20.7s-6.5-12.2-11.3-16.9c-4.7-4.7-10.4-8.6-16.9-11.3
		c-6.5-2.7-13.3-4.1-20.7-4.1c-7.1,0-14.2,1.5-20.7,4.1c-6.5,2.7-12.2,6.5-16.9,11.3c-4.7,4.7-8.6,10.4-11.3,16.9
		C759.3,142.5,758.1,149.3,758.1,156.7z"/>
</g>
</svg>
